<?xml version="1.0" encoding="utf-8"?>
<!-- Generator: Adobe Illustrator 21.1.0, SVG Export Plug-In . SVG Version: 6.00 Build 0)  -->
<svg version="1.1" id="Vrstva_1" xmlns="http://www.w3.org/2000/svg" xmlns:xlink="http://www.w3.org/1999/xlink" x="0px" y="0px"
	 viewBox="0 0 502.1 158.3" style="enable-background:new 0 0 502.1 158.3;" xml:space="preserve">
<style type="text/css">
	.st0{fill:#414042;}
	.st1{fill:#00ABE9;}
</style>
<g>
	<path class="st0" d="M179,55.4c-4.9,4.8-7.4,10.8-7.4,17.7h9.6c0-4.2,1.5-7.9,4.5-10.9c3-3,6.7-4.5,11-4.5c4.2,0,7.8,1.5,10.8,4.5
		c3,3,4.5,6.6,4.5,10.9v17h-15.3c-7,0-13,2.4-17.9,7.3c-4.9,4.8-7.4,10.8-7.4,17.7v9.6c0,6.9,2.5,12.7,7.4,17.6
		c4.9,4.9,10.8,7.4,17.8,7.4c6.6,0,12.4-2.3,17.2-7l3.3,5.4h4.6v-75c0-7-2.4-12.9-7.4-17.7c-4.9-4.8-10.8-7.3-17.6-7.3
		C189.9,48.1,183.9,50.5,179,55.4 M185.9,135.6c-3-3-4.5-6.6-4.5-10.9v-9.6c0-4.2,1.5-7.9,4.5-10.9c3-3,6.7-4.5,11-4.5h15.3v25
		c0,4.1-1.5,7.7-4.5,10.8c-3,3-6.6,4.6-10.8,4.6C192.5,140.1,188.9,138.6,185.9,135.6"/>
	<path class="st0" d="M179,55.4c-4.9,4.8-7.4,10.8-7.4,17.7h9.6c0-4.2,1.5-7.9,4.5-10.9c3-3,6.7-4.5,11-4.5c4.2,0,7.8,1.5,10.8,4.5
		c3,3,4.5,6.6,4.5,10.9v17h-15.3c-7,0-13,2.4-17.9,7.3c-4.9,4.8-7.4,10.8-7.4,17.7v9.6c0,6.9,2.5,12.7,7.4,17.6
		c4.9,4.9,10.8,7.4,17.8,7.4c6.6,0,12.4-2.3,17.2-7l3.3,5.4h4.6v-75c0-7-2.4-12.9-7.4-17.7c-4.9-4.8-10.8-7.3-17.6-7.3
		C189.9,48.1,183.9,50.5,179,55.4 M185.9,135.6c-3-3-4.5-6.6-4.5-10.9v-9.6c0-4.2,1.5-7.9,4.5-10.9c3-3,6.7-4.5,11-4.5h15.3v25
		c0,4.1-1.5,7.7-4.5,10.8c-3,3-6.6,4.6-10.8,4.6C192.5,140.1,188.9,138.6,185.9,135.6"/>
	<path class="st0" d="M212.2,124.7v-25h-15.4c-4.3,0-8,1.5-11,4.5c-3,3-4.5,6.6-4.5,10.9v9.6c0,4.2,1.5,7.9,4.5,10.9
		c3,3,6.7,4.5,11,4.5c4.2,0,7.8-1.5,10.8-4.6C210.7,132.5,212.2,128.9,212.2,124.7 M221.8,148.1h-4.6l-3.3-5.4
		c-4.8,4.7-10.5,7-17.2,7c-7,0-12.9-2.5-17.8-7.4c-4.9-4.9-7.4-10.8-7.4-17.6v-9.6c0-7,2.5-12.9,7.4-17.7c4.9-4.8,10.9-7.3,17.9-7.3
		h15.3v-17c0-4.2-1.5-7.9-4.5-10.9c-3-3-6.6-4.5-10.8-4.5c-4.3,0-8,1.5-11,4.5c-3,3-4.5,6.6-4.5,10.9h-9.6c0-7,2.5-12.9,7.4-17.7
		c4.9-4.8,10.8-7.3,17.8-7.3c6.9,0,12.7,2.4,17.6,7.3c4.9,4.8,7.4,10.8,7.4,17.7L221.8,148.1L221.8,148.1z"/>
	<path class="st0" d="M237.8,55l-3.3-5.2H230v98.3h9.6v-75c0-4.2,1.5-7.9,4.5-10.9c3-3,6.7-4.5,11-4.5c4.2,0,7.8,1.5,10.8,4.5
		c3,3,4.5,6.6,4.5,10.9v75h9.6v-75c0-7-2.4-12.9-7.3-17.7c-4.9-4.8-10.8-7.3-17.7-7.3C248.4,48.1,242.6,50.4,237.8,55"/>
	<path class="st0" d="M237.8,55l-3.3-5.2H230v98.3h9.6v-75c0-4.2,1.5-7.9,4.5-10.9c3-3,6.7-4.5,11-4.5c4.2,0,7.8,1.5,10.8,4.5
		c3,3,4.5,6.6,4.5,10.9v75h9.6v-75c0-7-2.4-12.9-7.3-17.7c-4.9-4.8-10.8-7.3-17.7-7.3C248.4,48.1,242.6,50.4,237.8,55"/>
	<path class="st0" d="M280.1,148.1h-9.6v-75c0-4.2-1.5-7.9-4.5-10.9c-3-3-6.6-4.5-10.8-4.5c-4.3,0-8,1.5-11,4.5
		c-3,3-4.6,6.6-4.6,10.9v75H230V49.7h4.6l3.3,5.2c4.8-4.6,10.6-6.9,17.3-6.9c6.9,0,12.7,2.4,17.6,7.3c4.9,4.8,7.3,10.8,7.3,17.7
		L280.1,148.1L280.1,148.1z"/>
	<path class="st0" d="M295.7,55.4c-4.9,4.8-7.4,10.8-7.4,17.7v51.6c0,6.9,2.4,12.7,7.4,17.6c4.9,4.9,10.8,7.4,17.8,7.4
		c6.9,0,12.7-2.4,17.6-7.4c4.9-4.9,7.4-10.8,7.4-17.6v-10.5h-9.6v10.5c0,4.1-1.5,7.7-4.5,10.8c-3,3-6.6,4.6-10.8,4.6
		c-4.3,0-7.9-1.5-11-4.6c-3-3.1-4.5-6.6-4.5-10.8V73.1c0-4.2,1.5-7.9,4.5-10.9c3-3,6.7-4.5,11-4.5c4.2,0,7.8,1.5,10.8,4.5
		c3,3,4.5,6.6,4.5,10.9v10.5h9.6V73.1c0-7-2.4-12.9-7.4-17.7c-4.9-4.8-10.8-7.3-17.6-7.3C306.5,48.1,300.6,50.5,295.7,55.4"/>
	<path class="st0" d="M295.7,55.4c-4.9,4.8-7.4,10.8-7.4,17.7v51.6c0,6.9,2.4,12.7,7.4,17.6c4.9,4.9,10.8,7.4,17.8,7.4
		c6.9,0,12.7-2.4,17.6-7.4c4.9-4.9,7.4-10.8,7.4-17.6v-10.5h-9.6v10.5c0,4.1-1.5,7.7-4.5,10.8c-3,3-6.6,4.6-10.8,4.6
		c-4.3,0-7.9-1.5-11-4.6c-3-3.1-4.5-6.6-4.5-10.8V73.1c0-4.2,1.5-7.9,4.5-10.9c3-3,6.7-4.5,11-4.5c4.2,0,7.8,1.5,10.8,4.5
		c3,3,4.5,6.6,4.5,10.9v10.5h9.6V73.1c0-7-2.4-12.9-7.4-17.7c-4.9-4.8-10.8-7.3-17.6-7.3C306.5,48.1,300.6,50.5,295.7,55.4"/>
	<path class="st0" d="M338.5,124.7c0,6.9-2.5,12.7-7.4,17.6c-4.9,4.9-10.8,7.4-17.6,7.4c-7,0-12.9-2.4-17.8-7.4
		c-4.9-4.9-7.3-10.8-7.3-17.6V73.1c0-7,2.4-12.9,7.3-17.7c4.9-4.8,10.8-7.3,17.8-7.3c6.9,0,12.7,2.4,17.6,7.3
		c4.9,4.8,7.4,10.8,7.4,17.7v10.5h-9.6V73.1c0-4.2-1.5-7.9-4.5-10.9c-3-3-6.6-4.5-10.8-4.5c-4.3,0-7.9,1.5-11,4.5
		c-3,3-4.5,6.6-4.5,10.9v51.6c0,4.1,1.5,7.7,4.5,10.8c3,3,6.7,4.6,11,4.6c4.2,0,7.8-1.5,10.8-4.6c3-3.1,4.5-6.6,4.5-10.8v-10.5h9.6
		V124.7z"/>
	<path class="st0" d="M3.7,17.4v130.7h4.6l3.3-5.4c4.8,4.7,10.6,7,17.3,7c6.9,0,12.7-2.5,17.6-7.4c4.9-4.9,7.3-10.8,7.3-17.6V73.1
		c0-7-2.5-12.9-7.4-17.7c-4.9-4.8-10.8-7.3-17.7-7.3c-5.8,0-10.9,1.7-15.4,5.2V17.4H3.7z M17.9,135.5c-3-3.1-4.5-6.6-4.5-10.8V73.1
		c0-4.2,1.5-7.9,4.5-10.9c3-3,6.7-4.5,11-4.5c4.2,0,7.8,1.5,10.8,4.5c3,3,4.5,6.6,4.5,10.9v51.6c0,4.1-1.5,7.7-4.5,10.8
		c-3,3-6.6,4.6-10.8,4.6C24.6,140.1,20.9,138.6,17.9,135.5"/>
	<path class="st0" d="M3.7,17.4v130.7h4.6l3.3-5.4c4.8,4.7,10.6,7,17.3,7c6.9,0,12.7-2.5,17.6-7.4c4.9-4.9,7.3-10.8,7.3-17.6V73.1
		c0-7-2.5-12.9-7.4-17.7c-4.9-4.8-10.8-7.3-17.7-7.3c-5.8,0-10.9,1.7-15.4,5.2V17.4H3.7z M17.9,135.5c-3-3.1-4.5-6.6-4.5-10.8V73.1
		c0-4.2,1.5-7.9,4.5-10.9c3-3,6.7-4.5,11-4.5c4.2,0,7.8,1.5,10.8,4.5c3,3,4.5,6.6,4.5,10.9v51.6c0,4.1-1.5,7.7-4.5,10.8
		c-3,3-6.6,4.6-10.8,4.6C24.6,140.1,20.9,138.6,17.9,135.5"/>
	<path class="st0" d="M44.2,124.7V73.1c0-4.2-1.5-7.9-4.5-10.9c-3-3-6.6-4.5-10.8-4.5c-4.3,0-7.9,1.5-11,4.5c-3,3-4.5,6.6-4.5,10.9
		v51.6c0,4.1,1.5,7.7,4.5,10.8c3,3,6.7,4.6,11,4.6c4.2,0,7.8-1.5,10.8-4.6C42.7,132.5,44.2,128.9,44.2,124.7 M53.9,124.7
		c0,6.9-2.5,12.7-7.4,17.6c-4.9,4.9-10.8,7.4-17.6,7.4c-6.8,0-12.5-2.3-17.3-7l-3.3,5.4H3.7V17.4h9.6v35.9c4.5-3.5,9.6-5.2,15.4-5.2
		c6.9,0,12.8,2.4,17.7,7.3c4.9,4.8,7.4,10.8,7.4,17.7V124.7z"/>
	<polygon class="st0" points="117.4,49.8 117.4,59.4 156.7,59.4 117.4,139.3 117.4,148.1 167.4,148.1 167.4,138.5 128.2,138.5 
		167.4,58.7 167.4,49.8 	"/>
	<polygon class="st0" points="117.4,49.8 117.4,59.4 156.7,59.4 117.4,139.3 117.4,148.1 167.4,148.1 167.4,138.5 128.2,138.5 
		167.4,58.7 167.4,49.8 	"/>
	<polygon class="st0" points="117.4,49.7 117.4,59.4 156.7,59.4 117.4,139.3 117.4,148.1 167.4,148.1 167.4,138.5 128.2,138.5 
		167.4,58.7 167.4,49.7 	"/>
	<path class="st0" d="M101.2,49.3v40.7c0,4.2-1.5,7.9-4.5,10.9c-3,3-6.6,4.5-10.8,4.5h-0.3c-4.2,0-7.8-1.5-10.8-4.5
		c-3-3-4.5-6.6-4.5-10.9V49.3h-9.6v40.7c0,7,2.5,12.9,7.4,17.7c3.7,3.7,8.1,6,12.9,6.9v33.7h9.6v-33.7c4.9-0.9,9.2-3.2,12.9-6.9
		c4.9-4.8,7.4-10.7,7.4-17.7V49.3H101.2z"/>
	<path class="st0" d="M101.2,49.3v40.7c0,4.2-1.5,7.9-4.5,10.9c-3,3-6.6,4.5-10.8,4.5h-0.3c-4.2,0-7.8-1.5-10.8-4.5
		c-3-3-4.5-6.6-4.5-10.9V49.3h-9.6v40.7c0,7,2.5,12.9,7.4,17.7c3.7,3.7,8.1,6,12.9,6.9v33.7h9.6v-33.7c4.9-0.9,9.2-3.2,12.9-6.9
		c4.9-4.8,7.4-10.7,7.4-17.7V49.3H101.2z"/>
	<path class="st0" d="M90.5,148.2v-33.7c4.9-0.9,9.2-3.2,12.9-6.8c4.9-4.8,7.4-10.8,7.4-17.7V49.3h-9.6v40.7c0,4.2-1.5,7.9-4.5,10.9
		c-3,3-6.6,4.5-10.8,4.5h-0.3c-4.2,0-7.8-1.5-10.8-4.5c-3-3-4.5-6.6-4.5-10.9V49.3h-9.6v40.7c0,7,2.5,12.9,7.4,17.7
		c3.7,3.7,8.1,6,12.9,6.8v33.7"/>
	<path class="st0" d="M354,55.4c-4.9,4.8-7.4,10.8-7.4,17.7v51.6c0,6.9,2.4,12.7,7.4,17.6c4.9,4.9,10.8,7.4,17.8,7.4
		c6.9,0,12.7-2.4,17.6-7.4c4.9-4.9,7.4-10.8,7.4-17.6v-10.5h-9.6v10.5c0,4.1-1.5,7.7-4.5,10.8c-3,3-6.6,4.6-10.8,4.6
		c-4.3,0-7.9-1.5-11-4.6c-3-3.1-4.6-6.6-4.6-10.8v-25h40.5V73.1c0-7-2.5-12.9-7.4-17.7c-4.9-4.8-10.8-7.3-17.6-7.3
		C364.8,48.1,358.9,50.5,354,55.4 M356.3,73.1c0-4.2,1.5-7.9,4.5-10.9c3-3,6.7-4.5,11-4.5c4.2,0,7.8,1.5,10.8,4.5
		c3,3,4.5,6.6,4.5,10.9v16.8h-30.9V73.1z"/>
	<path class="st0" d="M354,55.4c-4.9,4.8-7.4,10.8-7.4,17.7v51.6c0,6.9,2.4,12.7,7.4,17.6c4.9,4.9,10.8,7.4,17.8,7.4
		c6.9,0,12.7-2.4,17.6-7.4c4.9-4.9,7.4-10.8,7.4-17.6v-10.5h-9.6v10.5c0,4.1-1.5,7.7-4.5,10.8c-3,3-6.6,4.6-10.8,4.6
		c-4.3,0-7.9-1.5-11-4.6c-3-3.1-4.6-6.6-4.6-10.8v-25h40.5V73.1c0-7-2.5-12.9-7.4-17.7c-4.9-4.8-10.8-7.3-17.6-7.3
		C364.8,48.1,358.9,50.5,354,55.4 M356.3,73.1c0-4.2,1.5-7.9,4.5-10.9c3-3,6.7-4.5,11-4.5c4.2,0,7.8,1.5,10.8,4.5
		c3,3,4.5,6.6,4.5,10.9v16.8h-30.9V73.1z"/>
	<path class="st0" d="M387.1,89.9V73.1c0-4.2-1.5-7.9-4.5-10.9c-3-3-6.6-4.5-10.8-4.5c-4.3,0-7.9,1.5-11,4.5c-3,3-4.5,6.6-4.5,10.9
		v16.8H387.1z M396.8,124.7c0,6.9-2.4,12.7-7.4,17.6c-4.9,4.9-10.8,7.4-17.6,7.4c-7,0-12.9-2.4-17.8-7.4c-4.9-4.9-7.4-10.8-7.4-17.6
		V73.1c0-7,2.4-12.9,7.4-17.7c4.9-4.8,10.8-7.3,17.8-7.3c6.9,0,12.7,2.4,17.6,7.3c4.9,4.8,7.4,10.8,7.4,17.7v26.6h-40.5v25
		c0,4.1,1.5,7.7,4.5,10.8c3,3,6.7,4.6,11,4.6c4.2,0,7.8-1.5,10.8-4.6c3-3.1,4.5-6.6,4.5-10.8v-10.5h9.6L396.8,124.7L396.8,124.7z"/>
</g>
<path class="st1" d="M420.3,13.2h67.8V81h-67.8V13.2z M410.5,3.4v97.4l10-10h77.4V3.4H410.5z"/>
<g>
	<path class="st1" d="M460.7,70.9c0,1.5,1.2,2.7,2.7,2.7c1.5,0,2.7-1.2,2.7-2.7v-4.3h-5.3L460.7,70.9L460.7,70.9z M460.7,70.9"/>
	<path class="st1" d="M460.7,24v4.3h5.3V24c0-1.5-1.2-2.7-2.7-2.7C461.9,21.3,460.7,22.5,460.7,24L460.7,24z M460.7,24"/>
	<path class="st1" d="M452,24v4.3h5.3V24c0-1.5-1.2-2.7-2.7-2.7S452,22.5,452,24L452,24z M452,24"/>
	<path class="st1" d="M452,70.9c0,1.5,1.2,2.7,2.7,2.7s2.7-1.2,2.7-2.7v-4.3H452V70.9z M452,70.9"/>
	<path class="st1" d="M443.3,24v4.3h5.3V24c0-1.5-1.2-2.7-2.7-2.7C444.5,21.3,443.3,22.5,443.3,24L443.3,24z M443.3,24"/>
	<path class="st1" d="M443.3,70.9c0,1.5,1.2,2.7,2.7,2.7c1.5,0,2.7-1.2,2.7-2.7v-4.3h-5.3V70.9z M443.3,70.9"/>
	<path class="st1" d="M428.5,56.1c0,1.5,1.2,2.7,2.7,2.7h4.3v-5.3h-4.3C429.7,53.5,428.5,54.7,428.5,56.1L428.5,56.1z M428.5,56.1"
		/>
	<path class="st1" d="M478.1,53.5h-4.3v5.3h4.3c1.5,0,2.7-1.2,2.7-2.7C480.8,54.7,479.6,53.5,478.1,53.5L478.1,53.5z M478.1,53.5"/>
	<path class="st1" d="M428.5,47.5c0,1.5,1.2,2.7,2.7,2.7h4.3v-5.3h-4.3C429.7,44.8,428.5,46,428.5,47.5L428.5,47.5z M428.5,47.5"/>
	<path class="st1" d="M478.1,44.8h-4.3v5.3h4.3c1.5,0,2.7-1.2,2.7-2.7C480.8,46,479.6,44.8,478.1,44.8L478.1,44.8z M478.1,44.8"/>
	<path class="st1" d="M428.5,38.8c0,1.5,1.2,2.7,2.7,2.7h4.3v-5.3h-4.3C429.7,36.2,428.5,37.3,428.5,38.8L428.5,38.8z M428.5,38.8"
		/>
	<path class="st1" d="M478.1,36.2h-4.3v5.3h4.3c1.5,0,2.7-1.2,2.7-2.7C480.8,37.3,479.6,36.2,478.1,36.2L478.1,36.2z M478.1,36.2"/>
	<path class="st1" d="M438.1,61.3c0,1.5,1.2,2.8,2.8,2.8h27.7c1.5,0,2.8-1.2,2.8-2.8V33.6c0-1.5-1.2-2.8-2.8-2.8h-27.7
		c-1.5,0-2.8,1.2-2.8,2.8V61.3z M438.1,61.3"/>
</g>
</svg>
