<svg xmlns="http://www.w3.org/2000/svg" version="1.1" x="0" y="0" width="64" height="64" viewBox="0 0 64 64"><path d="M10.22 10.22L10.22 58.75 15.19 53.77 53.78 53.77 53.78 10.22zM15.1 15.1L48.9 15.1 48.9 48.9 15.1 48.9z" fill="#FEFEFE"/><path d="M34.99 43.7C34.99 44.43 35.58 45.03 36.32 45.03 37.05 45.03 37.64 44.43 37.64 43.7L37.64 41.56 34.99 41.56 34.99 43.7zM34.99 20.3L34.99 22.45 37.64 22.45 37.64 20.3C37.64 19.57 37.05 18.97 36.31 18.97 35.58 18.97 34.99 19.57 34.99 20.3M30.67 20.3L30.67 22.45 33.33 22.45 33.33 20.3C33.33 19.57 32.73 18.97 32 18.97 31.27 18.97 30.67 19.57 30.67 20.3M30.67 43.7C30.67 44.43 31.27 45.03 32 45.03 32.73 45.03 33.33 44.43 33.33 43.7L33.33 41.56 30.67 41.56zM26.36 20.3L26.36 22.45 29.01 22.45 29.01 20.3C29.01 19.57 28.42 18.97 27.68 18.97 26.95 18.97 26.36 19.57 26.36 20.3M26.36 43.7C26.36 44.43 26.95 45.03 27.69 45.03 28.42 45.03 29.01 44.43 29.01 43.7L29.01 41.56 26.36 41.56zM18.97 36.31C18.97 37.05 19.57 37.64 20.3 37.64L22.45 37.64 22.45 34.99 20.3 34.99C19.57 34.99 18.97 35.58 18.97 36.31M43.7 34.99L41.56 34.99 41.56 37.64 43.7 37.64C44.43 37.64 45.03 37.05 45.03 36.31 45.03 35.58 44.43 34.99 43.7 34.99M18.97 32C18.97 32.73 19.57 33.33 20.3 33.33L22.45 33.33 22.45 30.67 20.3 30.67C19.57 30.67 18.97 31.27 18.97 32M43.7 30.67L41.56 30.67 41.56 33.33 43.7 33.33C44.43 33.33 45.03 32.73 45.03 32 45.03 31.27 44.43 30.67 43.7 30.67M18.97 27.69C18.97 28.42 19.57 29.01 20.3 29.01L22.45 29.01 22.45 26.36 20.3 26.36C19.57 26.36 18.97 26.95 18.97 27.69M43.7 26.36L41.56 26.36 41.56 29.01 43.7 29.01C44.43 29.01 45.03 28.42 45.03 27.68 45.03 26.95 44.43 26.36 43.7 26.36M23.72 38.9C23.72 39.66 24.34 40.28 25.1 40.28L38.9 40.28C39.66 40.28 40.28 39.66 40.28 38.9L40.28 25.1C40.28 24.34 39.66 23.72 38.9 23.72L25.1 23.72C24.34 23.72 23.72 24.34 23.72 25.1z" fill="#FEFEFE"/></svg>