<svg xmlns="http://www.w3.org/2000/svg" version="1.1" x="0" y="0" width="210" height="70" viewBox="0 0 210 70"><path d="M77.71 58.28C76.49 57.07 75.88 55.6 75.88 53.89L75.88 49.99C75.88 48.27 76.48 46.8 77.71 45.59 78.93 44.38 80.42 43.77 82.16 43.77L88.37 43.77 88.37 53.89C88.37 55.56 87.76 57.01 86.53 58.25 85.31 59.48 83.85 60.1 82.16 60.1 80.42 60.1 78.93 59.49 77.71 58.28M74.95 25.82C72.97 27.78 71.97 30.18 71.97 32.99L75.88 32.99C75.88 31.28 76.48 29.81 77.71 28.6 78.93 27.39 80.42 26.78 82.16 26.78 83.85 26.78 85.31 27.39 86.53 28.6 87.76 29.81 88.37 31.28 88.37 32.99L88.37 39.87 82.2 39.87C79.36 39.87 76.95 40.85 74.96 42.81 72.97 44.77 71.97 47.16 71.97 49.99L71.97 53.89C71.97 56.66 72.97 59.04 74.95 61.02 76.93 63.01 79.33 64 82.16 64 84.84 64 87.16 63.05 89.1 61.16L90.42 63.34 92.27 63.34 92.27 32.99C92.27 30.17 91.28 27.78 89.29 25.82 87.31 23.86 84.93 22.88 82.16 22.88 79.33 22.88 76.93 23.86 74.95 25.82M77.71 58.28C76.49 57.07 75.88 55.6 75.88 53.89L75.88 49.99C75.88 48.27 76.48 46.8 77.71 45.59 78.93 44.38 80.42 43.77 82.16 43.77L88.37 43.77 88.37 53.89C88.37 55.56 87.76 57.01 86.53 58.25 85.31 59.48 83.85 60.1 82.16 60.1 80.42 60.1 78.93 59.49 77.71 58.28M74.95 25.82C72.97 27.78 71.97 30.18 71.97 32.99L75.88 32.99C75.88 31.28 76.48 29.81 77.71 28.6 78.93 27.39 80.42 26.78 82.16 26.78 83.85 26.78 85.31 27.39 86.53 28.6 87.76 29.81 88.37 31.28 88.37 32.99L88.37 39.87 82.2 39.87C79.36 39.87 76.95 40.85 74.96 42.81 72.97 44.77 71.97 47.16 71.97 49.99L71.97 53.89C71.97 56.66 72.97 59.04 74.95 61.02 76.93 63.01 79.33 64 82.16 64 84.84 64 87.16 63.05 89.1 61.16L90.42 63.34 92.27 63.34 92.27 32.99C92.27 30.17 91.28 27.78 89.29 25.82 87.31 23.86 84.93 22.88 82.16 22.88 79.33 22.88 76.93 23.86 74.95 25.82M92.27 63.34L90.42 63.34 89.1 61.16C87.16 63.05 84.85 64 82.16 64 79.33 64 76.93 63.01 74.95 61.02 72.97 59.04 71.97 56.66 71.97 53.89L71.97 49.99C71.97 47.17 72.97 44.77 74.96 42.81 76.95 40.85 79.36 39.87 82.2 39.87L88.37 39.87 88.37 33C88.37 31.28 87.76 29.81 86.53 28.6 85.31 27.39 83.85 26.78 82.15 26.78 80.41 26.78 78.93 27.39 77.71 28.6 76.48 29.81 75.87 31.28 75.87 33L71.97 33C71.97 30.18 72.96 27.78 74.95 25.82 76.93 23.86 79.33 22.88 82.15 22.88 84.93 22.88 87.31 23.86 89.29 25.82 91.28 27.78 92.27 30.18 92.27 33L92.27 63.34zM88.37 53.89L88.37 43.77 82.16 43.77C80.42 43.77 78.94 44.37 77.72 45.59 76.49 46.8 75.88 48.26 75.88 49.98L75.88 53.89C75.88 55.6 76.49 57.07 77.72 58.28 78.94 59.5 80.42 60.1 82.16 60.1 83.85 60.1 85.31 59.48 86.54 58.25 87.76 57.01 88.37 55.56 88.37 53.89M98.75 25.66L97.43 23.54 95.58 23.54 95.58 63.34 99.48 63.34 99.48 32.99C99.48 31.28 100.09 29.81 101.32 28.6 102.54 27.39 104.02 26.78 105.76 26.78 107.45 26.78 108.91 27.39 110.14 28.6 111.36 29.81 111.97 31.28 111.97 32.99L111.97 63.34 115.87 63.34 115.87 32.99C115.87 30.17 114.88 27.78 112.9 25.82 110.91 23.86 108.53 22.88 105.76 22.88 103.02 22.88 100.69 23.8 98.75 25.66M98.75 25.66L97.43 23.54 95.58 23.54 95.58 63.34 99.48 63.34 99.48 32.99C99.48 31.28 100.09 29.81 101.32 28.6 102.54 27.39 104.02 26.78 105.76 26.78 107.45 26.78 108.91 27.39 110.14 28.6 111.36 29.81 111.97 31.28 111.97 32.99L111.97 63.34 115.87 63.34 115.87 32.99C115.87 30.17 114.88 27.78 112.9 25.82 110.91 23.86 108.53 22.88 105.76 22.88 103.02 22.88 100.69 23.8 98.75 25.66M115.87 63.34L111.97 63.34 111.97 32.99C111.97 31.28 111.36 29.81 110.13 28.6 108.91 27.39 107.45 26.78 105.75 26.78 104.02 26.78 102.54 27.39 101.32 28.6 100.09 29.81 99.47 31.28 99.47 32.99L99.47 63.34 95.57 63.34 95.57 23.54 97.42 23.54 98.75 25.66C100.68 23.81 103.02 22.88 105.75 22.88 108.53 22.88 110.91 23.86 112.9 25.82 114.88 27.78 115.87 30.18 115.87 33L115.87 63.34zM122.15 25.82C120.16 27.78 119.18 30.18 119.18 32.99L119.18 53.89C119.18 56.66 120.16 59.04 122.15 61.02 124.13 63.01 126.54 64 129.35 64 132.13 64 134.51 63.01 136.49 61.02 138.48 59.04 139.47 56.66 139.47 53.89L139.47 49.65 135.57 49.65 135.57 53.89C135.57 55.56 134.96 57.01 133.73 58.25 132.51 59.48 131.05 60.1 129.35 60.1 127.61 60.1 126.14 59.48 124.91 58.25 123.69 57.01 123.08 55.56 123.08 53.89L123.08 32.99C123.08 31.28 123.69 29.81 124.91 28.6 126.14 27.39 127.61 26.78 129.35 26.78 131.05 26.78 132.51 27.39 133.73 28.6 134.95 29.81 135.57 31.28 135.57 32.99L135.57 37.23 139.47 37.23 139.47 32.99C139.47 30.17 138.48 27.78 136.49 25.82 134.51 23.86 132.13 22.88 129.35 22.88 126.54 22.88 124.13 23.86 122.15 25.82M122.15 25.82C120.16 27.78 119.18 30.18 119.18 32.99L119.18 53.89C119.18 56.66 120.16 59.04 122.15 61.02 124.13 63.01 126.54 64 129.35 64 132.13 64 134.51 63.01 136.49 61.02 138.48 59.04 139.47 56.66 139.47 53.89L139.47 49.65 135.57 49.65 135.57 53.89C135.57 55.56 134.96 57.01 133.73 58.25 132.51 59.48 131.05 60.1 129.35 60.1 127.61 60.1 126.14 59.48 124.91 58.25 123.69 57.01 123.08 55.56 123.08 53.89L123.08 32.99C123.08 31.28 123.69 29.81 124.91 28.6 126.14 27.39 127.61 26.78 129.35 26.78 131.05 26.78 132.51 27.39 133.73 28.6 134.95 29.81 135.57 31.28 135.57 32.99L135.57 37.23 139.47 37.23 139.47 32.99C139.47 30.17 138.48 27.78 136.49 25.82 134.51 23.86 132.13 22.88 129.35 22.88 126.54 22.88 124.13 23.86 122.15 25.82M139.47 53.89C139.47 56.66 138.48 59.04 136.49 61.02 134.51 63.01 132.13 64 129.35 64 126.54 64 124.13 63.01 122.15 61.02 120.17 59.04 119.18 56.66 119.18 53.89L119.18 32.99C119.18 30.18 120.17 27.78 122.15 25.82 124.13 23.86 126.54 22.88 129.35 22.88 132.13 22.88 134.51 23.86 136.49 25.82 138.48 27.78 139.47 30.18 139.47 32.99L139.47 37.23 135.57 37.23 135.57 32.99C135.57 31.28 134.96 29.81 133.73 28.6 132.51 27.39 131.05 26.78 129.35 26.78 127.62 26.78 126.14 27.39 124.91 28.6 123.69 29.81 123.08 31.28 123.08 32.99L123.08 53.89C123.08 55.56 123.69 57.02 124.91 58.25 126.14 59.48 127.62 60.1 129.35 60.1 131.05 60.1 132.51 59.48 133.73 58.25 134.95 57.02 135.57 55.56 135.57 53.89L135.57 49.65 139.47 49.65zM9.74 58.25C8.51 57.01 7.9 55.56 7.9 53.89L7.9 32.99C7.9 31.28 8.51 29.81 9.74 28.6 10.96 27.39 12.44 26.78 14.18 26.78 15.87 26.78 17.33 27.39 18.56 28.6 19.78 29.81 20.39 31.28 20.39 32.99L20.39 53.89C20.39 55.56 19.78 57.01 18.56 58.25 17.33 59.48 15.87 60.1 14.18 60.1 12.44 60.1 10.97 59.48 9.74 58.25M4 10.45L4 63.34 5.85 63.34 7.17 61.16C9.11 63.05 11.45 64 14.18 64 16.96 64 19.34 63.01 21.32 61.02 23.3 59.04 24.3 56.66 24.3 53.89L24.3 32.99C24.3 30.17 23.3 27.78 21.31 25.82 19.32 23.86 16.93 22.88 14.14 22.88 11.8 22.88 9.71 23.58 7.9 24.99L7.9 10.45zM9.74 58.25C8.51 57.01 7.9 55.56 7.9 53.89L7.9 32.99C7.9 31.28 8.51 29.81 9.74 28.6 10.96 27.39 12.44 26.78 14.18 26.78 15.87 26.78 17.33 27.39 18.56 28.6 19.78 29.81 20.39 31.28 20.39 32.99L20.39 53.89C20.39 55.56 19.78 57.01 18.56 58.25 17.33 59.48 15.87 60.1 14.18 60.1 12.44 60.1 10.97 59.48 9.74 58.25M4 10.45L4 63.34 5.85 63.34 7.17 61.16C9.11 63.05 11.45 64 14.18 64 16.96 64 19.34 63.01 21.32 61.02 23.3 59.04 24.3 56.66 24.3 53.89L24.3 32.99C24.3 30.17 23.3 27.78 21.31 25.82 19.32 23.86 16.93 22.88 14.14 22.88 11.8 22.88 9.71 23.58 7.9 24.99L7.9 10.45zM24.3 53.89C24.3 56.66 23.3 59.04 21.32 61.02 19.34 63.01 16.96 64 14.18 64 11.45 64 9.11 63.05 7.17 61.16L5.85 63.34 4 63.34 4 10.45 7.9 10.45 7.9 25C9.71 23.58 11.8 22.88 14.14 22.88 16.93 22.88 19.32 23.86 21.31 25.82 23.3 27.78 24.3 30.18 24.3 32.99zM20.4 53.89L20.4 32.99C20.4 31.28 19.79 29.81 18.56 28.6 17.33 27.39 15.87 26.78 14.18 26.78 12.44 26.78 10.96 27.39 9.74 28.6 8.51 29.81 7.9 31.28 7.9 32.99L7.9 53.89C7.9 55.56 8.51 57.02 9.74 58.25 10.96 59.48 12.44 60.1 14.18 60.1 15.87 60.1 17.33 59.48 18.56 58.25 19.79 57.01 20.4 55.56 20.4 53.89M50 23.54L49.99 27.44 65.93 27.44 50.03 59.77 50.03 63.34 70.26 63.34 70.26 59.44 54.39 59.44 70.26 27.18 70.26 23.54zM50 23.54L49.99 27.44 65.93 27.44 50.03 59.77 50.03 63.34 70.26 63.34 70.26 59.44 54.39 59.44 70.26 27.18 70.26 23.54zM50 23.54L49.99 27.44 65.93 27.44 50.03 59.77 50.03 63.34 70.26 63.34 70.26 59.44 54.39 59.44 70.26 27.18 70.26 23.54zM43.46 23.34L43.46 39.8C43.46 41.51 42.85 42.98 41.63 44.19 40.4 45.4 38.94 46.01 37.25 46.01L37.13 46.01C35.44 46.01 33.98 45.4 32.75 44.19 31.53 42.98 30.92 41.51 30.92 39.8L30.92 23.34 27.01 23.34 27.01 39.8C27.01 42.62 28.01 45.01 30 46.97 31.51 48.46 33.26 49.38 35.24 49.74L35.24 63.37 39.14 63.37 39.14 49.74C41.11 49.38 42.86 48.46 44.37 46.97 46.37 45.01 47.36 42.62 47.36 39.8L47.36 23.34zM43.46 23.34L43.46 39.8C43.46 41.51 42.85 42.98 41.63 44.19 40.4 45.4 38.94 46.01 37.25 46.01L37.13 46.01C35.44 46.01 33.98 45.4 32.75 44.19 31.53 42.98 30.92 41.51 30.92 39.8L30.92 23.34 27.01 23.34 27.01 39.8C27.01 42.62 28.01 45.01 30 46.97 31.51 48.46 33.26 49.38 35.24 49.74L35.24 63.37 39.14 63.37 39.14 49.74C41.11 49.38 42.86 48.46 44.37 46.97 46.37 45.01 47.36 42.62 47.36 39.8L47.36 23.34zM39.14 63.37L39.14 49.74C41.12 49.38 42.86 48.46 44.38 46.97 46.37 45.01 47.36 42.62 47.36 39.8L47.36 23.34 43.46 23.34 43.46 39.8C43.46 41.51 42.85 42.98 41.63 44.19 40.4 45.4 38.94 46.01 37.25 46.01L37.13 46.01C35.44 46.01 33.98 45.4 32.75 44.19 31.53 42.98 30.92 41.51 30.92 39.8L30.92 23.34 27.01 23.34 27.01 39.8C27.01 42.62 28.01 45.01 30 46.97 31.51 48.46 33.26 49.38 35.24 49.74L35.24 63.37M146.67 32.99C146.67 31.28 147.29 29.81 148.51 28.6 149.74 27.39 151.22 26.78 152.95 26.78 154.65 26.78 156.11 27.39 157.33 28.6 158.56 29.81 159.17 31.28 159.17 32.99L159.17 39.8 146.67 39.8zM145.75 25.82C143.77 27.78 142.78 30.18 142.78 32.99L142.78 53.89C142.78 56.66 143.77 59.04 145.75 61.02 147.73 63.01 150.14 64 152.95 64 155.73 64 158.11 63.01 160.09 61.02 162.08 59.04 163.07 56.66 163.07 53.89L163.07 49.65 159.17 49.65 159.17 53.89C159.17 55.56 158.56 57.01 157.33 58.25 156.11 59.48 154.65 60.1 152.95 60.1 151.21 60.1 149.74 59.48 148.51 58.25 147.29 57.01 146.67 55.56 146.67 53.89L146.67 43.77 163.07 43.77 163.07 32.99C163.07 30.17 162.08 27.78 160.09 25.82 158.11 23.86 155.73 22.88 152.95 22.88 150.13 22.88 147.73 23.86 145.75 25.82M146.67 32.99C146.67 31.28 147.29 29.81 148.51 28.6 149.74 27.39 151.22 26.78 152.95 26.78 154.65 26.78 156.11 27.39 157.33 28.6 158.56 29.81 159.17 31.28 159.17 32.99L159.17 39.8 146.67 39.8zM145.75 25.82C143.77 27.78 142.78 30.18 142.78 32.99L142.78 53.89C142.78 56.66 143.77 59.04 145.75 61.02 147.73 63.01 150.14 64 152.95 64 155.73 64 158.11 63.01 160.09 61.02 162.08 59.04 163.07 56.66 163.07 53.89L163.07 49.65 159.17 49.65 159.17 53.89C159.17 55.56 158.56 57.01 157.33 58.25 156.11 59.48 154.65 60.1 152.95 60.1 151.21 60.1 149.74 59.48 148.51 58.25 147.29 57.01 146.67 55.56 146.67 53.89L146.67 43.77 163.07 43.77 163.07 32.99C163.07 30.17 162.08 27.78 160.09 25.82 158.11 23.86 155.73 22.88 152.95 22.88 150.13 22.88 147.73 23.86 145.75 25.82M163.07 53.89C163.07 56.66 162.08 59.04 160.09 61.02 158.11 63.01 155.73 64 152.95 64 150.13 64 147.73 63.01 145.75 61.02 143.77 59.04 142.78 56.66 142.78 53.89L142.78 32.99C142.78 30.18 143.77 27.78 145.75 25.82 147.73 23.86 150.14 22.88 152.95 22.88 155.73 22.88 158.11 23.86 160.09 25.82 162.08 27.78 163.07 30.18 163.07 32.99L163.07 43.77 146.68 43.77 146.68 53.89C146.68 55.56 147.29 57.02 148.51 58.25 149.74 59.48 151.22 60.1 152.95 60.1 154.65 60.1 156.11 59.48 157.33 58.25 158.56 57.02 159.17 55.56 159.17 53.89L159.17 49.65 163.07 49.65 163.07 53.89zM159.17 39.81L159.17 32.99C159.17 31.28 158.56 29.81 157.33 28.6 156.11 27.39 154.65 26.78 152.95 26.78 151.21 26.78 149.74 27.39 148.51 28.6 147.29 29.81 146.67 31.28 146.67 32.99L146.67 39.81z" fill="#FEFEFE"/><path d="M168.64 4.79L168.64 44.19 172.67 40.15 204 40.15 204 4.79zM172.6 8.75L200.04 8.75 200.04 36.19 172.6 36.19z" fill="#FEFEFE"/><path d="M188.75 31.97C188.75 32.56 189.23 33.05 189.82 33.05 190.42 33.05 190.9 32.56 190.9 31.97L190.9 30.23 188.75 30.23 188.75 31.97zM188.75 12.97L188.75 14.71 190.9 14.71 190.9 12.97C190.9 12.38 190.42 11.9 189.82 11.9 189.23 11.9 188.75 12.38 188.75 12.97M185.24 12.97L185.24 14.71 187.4 14.71 187.4 12.97C187.4 12.38 186.91 11.9 186.32 11.9 185.72 11.9 185.24 12.38 185.24 12.97M185.24 31.97C185.24 32.56 185.72 33.05 186.32 33.05 186.91 33.05 187.4 32.56 187.4 31.97L187.4 30.23 185.24 30.23zM181.74 12.97L181.74 14.71 183.89 14.71 183.89 12.97C183.89 12.38 183.41 11.9 182.82 11.9 182.22 11.9 181.74 12.38 181.74 12.97M181.74 31.97C181.74 32.56 182.22 33.05 182.82 33.05 183.41 33.05 183.89 32.56 183.89 31.97L183.89 30.23 181.74 30.23zM175.74 25.97C175.74 26.57 176.23 27.05 176.82 27.05L178.56 27.05 178.56 24.9 176.82 24.9C176.23 24.9 175.74 25.38 175.74 25.97M195.82 24.9L194.08 24.9 194.08 27.05 195.82 27.05C196.41 27.05 196.89 26.57 196.89 25.97 196.89 25.38 196.41 24.9 195.82 24.9M175.74 22.47C175.74 23.06 176.23 23.55 176.82 23.55L178.56 23.55 178.56 21.39 176.82 21.39C176.23 21.39 175.74 21.88 175.74 22.47M195.82 21.39L194.08 21.39 194.08 23.55 195.82 23.55C196.41 23.55 196.89 23.07 196.89 22.47 196.89 21.88 196.41 21.39 195.82 21.39M175.74 18.97C175.74 19.56 176.23 20.05 176.82 20.05L178.56 20.05 178.56 17.89 176.82 17.89C176.23 17.89 175.74 18.37 175.74 18.97M195.82 17.89L194.08 17.89 194.08 20.04 195.82 20.04C196.41 20.04 196.89 19.56 196.89 18.97 196.89 18.37 196.41 17.89 195.82 17.89M179.6 28.07C179.6 28.69 180.1 29.19 180.72 29.19L191.92 29.19C192.54 29.19 193.04 28.69 193.04 28.07L193.04 16.87C193.04 16.25 192.54 15.75 191.92 15.75L180.72 15.75C180.1 15.75 179.6 16.25 179.6 16.87z" fill="#FEFEFE"/></svg>