<?xml version="1.0" encoding="UTF-8"?>
<!DOCTYPE svg PUBLIC "-//W3C//DTD SVG 1.1//EN" "http://www.w3.org/Graphics/SVG/1.1/DTD/svg11.dtd">
<svg version="1.1" xmlns="http://www.w3.org/2000/svg" xmlns:xlink="http://www.w3.org/1999/xlink" x="0" y="0" width="64" height="64" viewBox="0, 0, 64, 64">
  <g id="Layer_1">
    <path d="M5.362,4.807 L5.362,64.167 L11.441,58.078 L58.638,58.078 L58.638,4.807 z M11.327,10.769 L52.666,10.769 L52.666,52.111 L11.327,52.111 z" fill="#000000"/>
    <g>
      <path d="M35.657,45.754 C35.657,46.65 36.384,47.377 37.28,47.377 C38.177,47.377 38.904,46.65 38.904,45.754 L38.904,43.132 L35.66,43.132 L35.66,45.754 z" fill="#000000"/>
      <path d="M35.657,17.136 L35.657,19.758 L38.901,19.758 L38.901,17.136 C38.901,16.24 38.174,15.513 37.277,15.513 C36.381,15.513 35.657,16.24 35.657,17.136" fill="#000000"/>
      <path d="M30.376,17.136 L30.376,19.758 L33.623,19.758 L33.623,17.136 C33.623,16.24 32.897,15.513 32,15.513 C31.104,15.513 30.376,16.24 30.376,17.136" fill="#000000"/>
      <path d="M30.376,45.754 C30.376,46.65 31.104,47.377 32,47.377 C32.897,47.377 33.623,46.65 33.623,45.754 L33.623,43.132 L30.376,43.132 z" fill="#000000"/>
      <path d="M25.099,17.136 L25.099,19.758 L28.344,19.758 L28.344,17.136 C28.344,16.24 27.616,15.513 26.72,15.513 C25.823,15.513 25.099,16.24 25.099,17.136" fill="#000000"/>
      <path d="M25.099,45.754 C25.099,46.65 25.827,47.377 26.723,47.377 C27.619,47.377 28.347,46.65 28.347,45.754 L28.347,43.132 L25.099,43.132 z" fill="#000000"/>
      <path d="M16.068,36.722 C16.068,37.618 16.795,38.346 17.691,38.346 L20.313,38.346 L20.313,35.102 L17.691,35.102 C16.795,35.102 16.068,35.825 16.068,36.722" fill="#000000"/>
      <path d="M46.309,35.102 L43.687,35.102 L43.687,38.346 L46.309,38.346 C47.205,38.346 47.932,37.619 47.932,36.722 C47.932,35.826 47.205,35.102 46.309,35.102" fill="#000000"/>
      <path d="M16.068,31.445 C16.068,32.341 16.795,33.069 17.691,33.069 L20.313,33.069 L20.313,29.822 L17.691,29.822 C16.795,29.822 16.068,30.549 16.068,31.445" fill="#000000"/>
      <path d="M46.309,29.821 L43.687,29.821 L43.687,33.068 L46.309,33.068 C47.205,33.068 47.932,32.342 47.932,31.445 C47.932,30.549 47.205,29.821 46.309,29.821" fill="#000000"/>
      <path d="M16.068,26.168 C16.068,27.064 16.795,27.792 17.691,27.792 L20.313,27.792 L20.313,24.544 L17.691,24.544 C16.795,24.544 16.068,25.272 16.068,26.168" fill="#000000"/>
      <path d="M46.309,24.544 L43.687,24.544 L43.687,27.789 L46.309,27.789 C47.205,27.789 47.932,27.061 47.932,26.165 C47.932,25.268 47.205,24.544 46.309,24.544" fill="#000000"/>
      <path d="M21.872,39.882 C21.872,40.815 22.63,41.573 23.564,41.573 L40.436,41.573 C41.37,41.573 42.128,40.815 42.128,39.882 L42.128,23.009 C42.128,22.075 41.37,21.317 40.436,21.317 L23.564,21.317 C22.63,21.317 21.872,22.075 21.872,23.009 z" fill="#000000"/>
    </g>
  </g>
</svg>
